<svg id="visual" viewBox="0 0 960 540" width="960" height="540" xmlns="http://www.w3.org/2000/svg" xmlns:xlink="http://www.w3.org/1999/xlink" version="1.1"><rect x="0" y="0" width="960" height="540" fill="#eff0f1"></rect><defs><linearGradient id="grad1_0" x1="43.8%" y1="0%" x2="100%" y2="100%"><stop offset="14.444444444444446%" stop-color="#0c5464" stop-opacity="1"></stop><stop offset="85.55555555555554%" stop-color="#0c5464" stop-opacity="1"></stop></linearGradient></defs><defs><linearGradient id="grad1_1" x1="43.8%" y1="0%" x2="100%" y2="100%"><stop offset="14.444444444444446%" stop-color="#0c5464" stop-opacity="1"></stop><stop offset="85.55555555555554%" stop-color="#eff0f1" stop-opacity="1"></stop></linearGradient></defs><defs><linearGradient id="grad2_0" x1="0%" y1="0%" x2="56.3%" y2="100%"><stop offset="14.444444444444446%" stop-color="#0c5464" stop-opacity="1"></stop><stop offset="85.55555555555554%" stop-color="#0c5464" stop-opacity="1"></stop></linearGradient></defs><defs><linearGradient id="grad2_1" x1="0%" y1="0%" x2="56.3%" y2="100%"><stop offset="14.444444444444446%" stop-color="#eff0f1" stop-opacity="1"></stop><stop offset="85.55555555555554%" stop-color="#0c5464" stop-opacity="1"></stop></linearGradient></defs><g transform="translate(960, 0)"><path d="M0 540C-102.1 530.3 -204.2 520.6 -270 467.7C-335.8 414.7 -365.5 318.6 -404.4 233.5C-443.4 148.4 -491.7 74.2 -540 0L0 0Z" fill="#869eab"></path><path d="M0 270C-51 265.1 -102.1 260.3 -135 233.8C-167.9 207.4 -182.7 159.3 -202.2 116.8C-221.7 74.2 -245.8 37.1 -270 0L0 0Z" fill="#0c5464"></path></g><g transform="translate(0, 540)"><path d="M0 -540C79.8 -501.4 159.6 -462.8 244 -422.6C328.4 -382.4 417.5 -340.7 467.7 -270C517.8 -199.3 528.9 -99.7 540 0L0 0Z" fill="#869eab"></path><path d="M0 -270C39.9 -250.7 79.8 -231.4 122 -211.3C164.2 -191.2 208.8 -170.3 233.8 -135C258.9 -99.7 264.4 -49.8 270 0L0 0Z" fill="#0c5464"></path></g></svg>